<svg width="1060" height="1060" viewBox="0 0 1060 1060" fill="none" xmlns="http://www.w3.org/2000/svg">
<path d="M530 30C880 30 1030 280 1030 430C1030 830 430 1030 330 1030C230 1030 430 930 480 780C130 780 30 580 30 430C30 280 180 30 530 30ZM280 330C210.964 330 155 385.964 155 455C155 524.036 210.964 580 280 580C349.036 580 405 524.036 405 455C405 385.964 349.036 330 280 330ZM530 330C460.964 330 405 385.964 405 455C405 524.036 460.964 580 530 580C599.036 580 655 524.036 655 455C655 385.964 599.036 330 530 330ZM780 330C710.964 330 655 385.964 655 455C655 524.036 710.964 580 780 580C849.036 580 905 524.036 905 455C905 385.964 849.036 330 780 330Z" fill="white"/>
<path d="M480 780L508.461 789.487L521.623 750H480V780ZM530 30V60C863.431 60 1000 296.569 1000 430H1030H1060C1060 263.431 896.569 0 530 0V30ZM1030 430H1000C1000 613.751 861.88 755.925 701.777 854.45C622.602 903.173 540.186 939.816 471.512 964.234C437.198 976.434 406.576 985.489 381.771 991.457C356.332 997.578 338.833 1000 330 1000V1030V1060C346.167 1060 369.293 1056.17 395.807 1049.79C422.955 1043.26 455.614 1033.57 491.613 1020.77C563.564 995.184 649.898 956.827 733.223 905.55C898.12 804.075 1060 646.249 1060 430H1030ZM330 1030V1000C324.812 1000 321.785 999.66 320.298 999.376C318.481 999.028 320.6 999.078 323.777 1001.48C328.037 1004.7 331.672 1010.29 332.296 1017.01C332.781 1022.24 331.147 1025.27 331.404 1024.72C332.039 1023.36 334.884 1019.05 342.542 1010.62C349.666 1002.77 358.857 993.569 369.963 982.463C412.728 939.699 480.84 872.347 508.461 789.487L480 780L451.539 770.513C429.16 837.653 372.272 895.301 327.537 940.037C316.768 950.806 306.427 961.136 298.122 970.282C290.35 978.841 281.868 988.986 277.033 999.345C274.556 1004.65 271.652 1012.86 272.553 1022.56C273.592 1033.74 279.327 1043.09 287.59 1049.34C294.771 1054.77 302.799 1057.11 309.014 1058.3C315.559 1059.56 322.688 1060 330 1060V1030ZM480 780V750C310.8 750 206.726 701.8 144.963 640.037C82.8955 577.969 60 498.673 60 430H30H0C0 511.327 27.1045 607.031 102.537 682.463C178.274 758.2 299.2 810 480 810V780ZM30 430H60C60 296.569 196.569 60 530 60V30V0C163.431 0 0 263.431 0 430H30ZM280 330V300C194.396 300 125 369.396 125 455H155H185C185 402.533 227.533 360 280 360V330ZM155 455H125C125 540.604 194.396 610 280 610V580V550C227.533 550 185 507.467 185 455H155ZM280 580V610C365.604 610 435 540.604 435 455H405H375C375 507.467 332.467 550 280 550V580ZM405 455H435C435 369.396 365.604 300 280 300V330V360C332.467 360 375 402.533 375 455H405ZM530 330V300C444.396 300 375 369.396 375 455H405H435C435 402.533 477.533 360 530 360V330ZM405 455H375C375 540.604 444.396 610 530 610V580V550C477.533 550 435 507.467 435 455H405ZM530 580V610C615.604 610 685 540.604 685 455H655H625C625 507.467 582.467 550 530 550V580ZM655 455H685C685 369.396 615.604 300 530 300V330V360C582.467 360 625 402.533 625 455H655ZM780 330V300C694.396 300 625 369.396 625 455H655H685C685 402.533 727.533 360 780 360V330ZM655 455H625C625 540.604 694.396 610 780 610V580V550C727.533 550 685 507.467 685 455H655ZM780 580V610C865.604 610 935 540.604 935 455H905H875C875 507.467 832.467 550 780 550V580ZM905 455H935C935 369.396 865.604 300 780 300V330V360C832.467 360 875 402.533 875 455H905Z" fill="white"/>
</svg>
