<svg width="1000" height="1000" viewBox="0 0 1000 1000" fill="none" xmlns="http://www.w3.org/2000/svg">
<path d="M500 0C850 0.000133975 1000 250 1000 400C1000 800 500 980 300 1000C300.194 999.737 429.976 823.889 400 750C370.001 675 260 710 199.5 699C80 680 -0.000122184 560 0 400C0.000122065 230 150 0 500 0ZM250 450C222.386 450 200 472.386 200 500C200 527.614 222.386 550 250 550H600C627.614 550 650 527.614 650 500C650 472.386 627.614 450 600 450H250ZM250 250C222.386 250 200 272.386 200 300C200 327.614 222.386 350 250 350H750C777.614 350 800 327.614 800 300C800 272.386 777.614 250 750 250H250Z" fill="#00AE80"/>
</svg>
